PathFileType  4	(X/Y/Z) C:\Users\HPL 1\Documents/Temp/Sub278498/Files_W_HJCs/
DataRate	CameraRate	NumFrames	NumMarkers	Units	OrigDataRate	OrigDataStartFrame	OrigNumFrames
50.0	50.0	7	42	mm	50.0	357	571
Frame#	Time  	r_knee			r_shank(antsup)			r_ankle			r_calc			r_5meta			r_toe			L_knee			L_shank(ant_sup)			L_ankle			L_calc			L_5meta			L_toe			r_mknee			r_mankle			L_mknee			L_mankle			r_sh2			r_sh3			r_sh4			L_sh2			L_sh3			r_thigh1			r_thigh2			r_thigh3			r_thigh4			r_thigh5			L_thigh1			L_thigh2			L_thigh3			L_thigh4			r.ASIS			r.PSIS			L.ASIS			L.PSIS			C7			R_Shoulder			L_Shoulder			Sternum			R_HJC			L_HJC			R_HJC_reg			L_HJC_reg			
		X1	Y1	Z1	X2	Y2	Z2	X3	Y3	Z3	X4	Y4	Z4	X5	Y5	Z5	X6	Y6	Z6	X7	Y7	Z7	X8	Y8	Z8	X9	Y9	Z9	X10	Y10	Z10	X11	Y11	Z11	X12	Y12	Z12	X13	Y13	Z13	X14	Y14	Z14	X15	Y15	Z15	X16	Y16	Z16	X17	Y17	Z17	X18	Y18	Z18	X19	Y19	Z19	X20	Y20	Z20	X21	Y21	Z21	X22	Y22	Z22	X23	Y23	Z23	X24	Y24	Z24	X25	Y25	Z25	X26	Y26	Z26	X27	Y27	Z27	X28	Y28	Z28	X29	Y29	Z29	X30	Y30	Z30	X31	Y31	Z31	X32	Y32	Z32	X33	Y33	Z33	X34	Y34	Z34	X35	Y35	Z35	X36	Y36	Z36	X37	Y37	Z37	X38	Y38	Z38	X39	Y39	Z39	X40	Y40	Z40	X41	Y41	Z41	X42	Y42	Z42	

357	7.12000	586.38190	641.02863	-607.04559	544.54010	560.58942	-603.55066	245.67278	313.43909	-588.64172	144.85429	336.45258	-626.71008	282.29138	183.02585	-572.74542	332.83185	189.69620	-636.61652	745.08008	564.94354	-874.13751	774.78656	447.44629	-860.34106	696.92914	109.11246	-812.31274	620.92273	72.19503	-755.21210	814.29315	41.57986	-849.08905	861.04779	69.20700	-792.42609	570.77252	627.14246	-733.64178	252.60077	316.38861	-685.21313	767.41968	569.42212	-751.42920	727.01056	123.24488	-722.82831	460.75369	475.15488	-593.70715	490.33005	611.20477	-586.14697	405.39368	533.77466	-572.64374	686.49573	463.54590	-880.52112	677.46887	341.96341	-863.14954	781.34656	912.41040	-597.59729	739.62488	804.73218	-600.40106	683.77045	792.45587	-587.94476	675.45099	947.65155	-576.02405	635.46545	838.11639	-589.08661	818.12537	831.71295	-926.88361	825.94293	694.86298	-907.68512	702.04614	824.22168	-938.33923	714.15002	693.11951	-906.28180	869.41711	1092.45093	-660.91895	686.36829	1168.14990	-744.10522	848.72113	1064.31152	-913.39673	683.25537	1153.13855	-827.23450	818.25439	1619.97827	-832.19128	871.14899	1592.45483	-674.75317	854.41217	1563.69067	-1016.60858	937.59833	1515.60583	-837.98303	776.54969	1027.40631	-655.45207	758.98099	999.70019	-889.52881	773.42280	1042.64938	-684.54549	767.22788	1012.77578	-849.97833
358	7.14000	571.02039	646.56537	-605.94019	525.12335	568.49872	-602.32098	211.69334	339.92599	-589.11877	113.07738	368.62668	-628.83936	240.16225	207.80182	-571.41327	292.07123	210.84148	-634.68713	744.27472	564.82837	-874.87610	773.73041	447.41031	-861.10931	696.82294	108.92312	-812.72449	620.84424	72.03294	-755.38068	814.28296	41.51673	-849.06854	860.99341	69.18359	-792.35089	557.12726	631.70349	-732.76483	220.01353	341.72672	-685.83636	766.81189	569.23431	-751.80017	726.93329	123.35740	-723.15320	436.36398	488.23834	-592.47546	474.06268	622.30524	-586.28528	384.24854	550.29938	-573.14325	685.43140	463.32904	-881.25519	676.49536	341.76538	-863.72296	774.48950	911.89716	-597.11670	729.52557	805.32336	-599.44061	673.36035	794.87592	-587.42517	669.69092	950.20435	-576.99585	626.62848	841.53839	-592.20282	817.89154	831.39038	-927.43542	825.45044	694.52869	-908.09308	701.84186	824.27173	-939.18549	713.70062	692.87921	-907.11578	868.39087	1089.23340	-659.98096	688.54535	1169.38220	-745.20978	850.04883	1062.25818	-912.78540	685.97681	1154.44690	-828.51605	820.32690	1618.97961	-833.10431	873.22900	1592.02942	-675.76886	856.27039	1562.79761	-1017.45099	940.05750	1515.05005	-838.90479	774.09040	1026.34495	-655.85001	758.71754	999.58965	-890.19173	771.63467	1042.12279	-684.73730	766.53134	1012.44845	-850.25510
359	7.16000	556.01465	652.47931	-604.45337	505.91647	576.69720	-600.56995	178.99420	368.29388	-589.67908	82.62701	401.67813	-630.93182	199.29669	235.16855	-569.32666	251.87421	233.94562	-633.33337	743.08716	564.74341	-875.70319	772.85352	447.49527	-861.62823	696.75610	108.77354	-813.16248	620.75751	71.95815	-755.59430	814.31537	41.46729	-848.95117	860.95245	69.21083	-792.23273	543.37012	636.47198	-731.36359	188.42670	367.71442	-685.99219	765.19891	569.23163	-752.84955	726.93732	123.66409	-723.52380	412.41132	502.05206	-591.14929	458.22424	633.59595	-585.96027	363.70612	567.32880	-573.20245	684.38190	463.38882	-882.49420	675.79419	341.54440	-864.62823	767.01544	911.62256	-596.86310	718.96069	806.50159	-598.31982	662.61511	797.65918	-586.68439	662.81506	953.40613	-580.23651	617.17957	845.55609	-592.89789	817.51227	831.07465	-927.97272	824.62921	694.16351	-908.42462	701.54041	824.31012	-940.11273	712.87726	692.76288	-907.91779	866.50470	1085.54871	-659.17560	690.34766	1170.63672	-746.15729	852.07104	1060.42236	-912.05627	688.40643	1155.49011	-829.37231	822.60809	1617.95398	-833.97644	875.42401	1591.42407	-676.69330	858.60596	1561.73499	-1018.24908	942.82715	1514.60132	-839.75287	771.09807	1024.80512	-656.47702	758.69756	999.73239	-891.18066	769.52976	1042.36613	-685.12763	765.67520	1012.29055	-850.36196
360	7.18000	541.55835	658.35248	-602.75769	487.35181	585.13757	-598.94824	148.00073	398.32477	-590.34497	53.78167	437.12769	-633.65955	159.77521	264.66891	-568.31976	213.07846	259.51508	-631.22778	742.14838	564.91193	-876.47260	772.17889	447.85944	-862.13153	696.71625	108.71626	-813.69574	620.69519	71.91923	-755.87561	814.40057	41.52563	-848.80353	860.91998	69.24957	-792.03564	530.38715	641.60956	-729.57263	158.43526	395.91339	-686.46558	762.71161	569.58081	-753.41016	726.73077	123.87195	-723.97034	389.23184	516.72638	-590.49182	443.11328	645.42261	-585.28851	344.12729	585.71826	-572.94403	684.04260	463.18643	-883.36389	675.34137	341.57526	-865.89752	758.93048	911.85748	-596.11951	708.46753	807.90112	-596.67126	651.58569	800.88782	-585.65778	655.94421	956.72821	-582.06134	607.53259	849.81702	-593.59991	817.26764	830.91235	-928.22455	823.66650	693.98798	-908.61548	701.41827	824.34344	-941.32367	711.43372	693.24976	-908.84052	865.50629	1083.10352	-657.78345	691.77710	1172.01477	-747.03369	853.24066	1058.47070	-911.36786	690.49152	1156.66711	-830.30096	824.98859	1616.95203	-834.90668	877.74146	1590.89929	-677.64032	861.19763	1560.56934	-1019.15094	945.56842	1514.02283	-840.64966	768.70087	1024.37712	-656.50967	758.42551	999.64920	-891.35251	767.67163	1042.30804	-684.88496	765.11582	1011.79597	-850.42531
361	7.20000	527.17480	664.68451	-600.72253	469.23834	594.64496	-596.62823	118.52633	430.30777	-590.74042	27.60144	474.25827	-636.02203	121.75630	296.37268	-567.11005	174.80119	286.82614	-628.75806	741.30511	565.06995	-877.29980	771.49713	448.16391	-862.69867	696.60370	108.63279	-814.17944	620.65991	71.93084	-756.05450	814.45496	41.58242	-848.67175	860.88409	69.34173	-791.88165	517.93384	645.84705	-727.31879	131.26166	423.55273	-685.75867	760.44489	569.98236	-754.05981	726.50421	124.07232	-724.43909	366.77029	532.38739	-589.08307	428.69193	657.50952	-584.54242	326.00931	604.31250	-572.71478	683.49420	463.14157	-884.29919	675.04785	341.60492	-866.62726	750.48950	912.54425	-594.71948	697.50977	809.91516	-594.60083	640.39038	804.67328	-584.60217	648.17432	960.61206	-583.89893	597.73706	854.72455	-594.37158	817.14856	830.96594	-928.22968	823.12622	694.08704	-908.49670	701.46808	824.39246	-943.07690	711.06580	693.19586	-910.18134	863.75684	1080.38611	-656.42480	692.79822	1173.41980	-748.24353	852.88751	1056.67322	-911.51691	692.46625	1157.63086	-831.25317	827.38562	1615.78931	-835.90405	880.12628	1590.39978	-678.69025	863.71045	1559.40442	-1020.05847	948.42987	1513.41602	-841.51300	765.60872	1023.80585	-656.98211	757.05865	999.67713	-891.95640	764.29813	1042.49657	-685.07511	763.63324	1010.87353	-851.33183
362	7.22000	512.85162	671.97095	-598.22900	451.15762	605.00055	-594.41168	90.92526	463.31845	-590.75104	3.46393	512.09796	-637.31586	84.99189	329.55347	-565.63135	138.93913	316.13800	-626.57892	740.87524	565.14581	-878.26050	770.93762	448.23227	-863.49426	696.53937	108.61765	-814.67334	620.64099	71.94569	-756.21021	814.49036	41.68031	-848.55591	860.86658	69.40207	-791.74512	505.32721	650.70917	-724.37036	103.43764	455.90503	-686.12939	758.91388	570.40619	-754.84644	726.29065	124.21114	-725.01929	344.96054	549.34601	-586.97290	414.55688	670.47211	-583.35431	308.49905	623.91351	-572.21021	682.89844	463.04617	-885.26904	674.94269	341.61304	-867.42841	742.27185	913.69409	-593.59894	686.26550	812.93665	-592.27948	628.95728	809.37152	-583.20532	641.27271	964.94427	-587.08282	587.99158	860.28693	-595.25037	817.16034	831.20007	-928.22540	823.36359	694.34711	-908.20166	701.65552	824.48273	-944.72400	711.37140	692.96820	-911.57996	861.92444	1077.87585	-653.98083	694.05487	1174.74158	-749.11707	854.75739	1054.95740	-909.79590	694.28345	1158.71875	-832.40466	829.75000	1614.73901	-836.98694	882.67114	1589.81165	-679.82385	866.45184	1558.01086	-1020.84888	951.19171	1512.51733	-842.43402	762.39948	1023.41487	-656.76637	757.46504	999.70035	-891.88652	762.41199	1042.85255	-683.83933	762.86901	1010.81635	-850.36531
363	7.24000	497.78723	680.96674	-595.36969	432.80075	617.32184	-591.24323	64.53427	496.63531	-590.73273	-18.95839	550.29828	-639.36035	50.02622	363.57422	-563.86652	103.46584	346.52936	-623.65710	740.51044	565.18512	-879.15137	770.41058	448.35663	-864.36365	696.46124	108.59364	-815.15247	620.60077	72.00262	-756.44019	814.57367	41.71783	-848.50336	860.88739	69.48230	-791.67542	491.90799	656.97485	-721.09143	78.14318	487.19223	-685.96405	758.04620	570.47498	-755.83600	726.09235	124.28465	-725.59515	323.03281	568.47992	-584.51190	400.40524	684.17542	-580.24536	291.44714	644.49286	-572.14514	682.41797	462.98389	-886.33038	674.71912	341.25244	-868.04926	733.89355	915.94403	-592.23755	674.82629	817.01117	-589.66376	617.37756	815.22052	-581.59448	634.80823	971.31445	-589.44763	578.04596	867.21655	-595.57739	817.03558	831.42114	-928.51947	823.46747	694.62134	-908.38422	701.63062	824.09113	-946.20160	711.93481	692.97711	-913.01984	860.26849	1075.76062	-652.67084	695.10400	1176.04407	-750.30292	854.98370	1053.31787	-909.02399	695.90576	1159.56555	-833.41010	831.99829	1613.59070	-837.98755	885.16449	1589.19189	-680.82965	869.02075	1556.52051	-1021.68866	953.73676	1511.63403	-843.22809	759.58261	1023.31553	-656.94919	756.74800	999.64514	-892.10847	760.06197	1043.52660	-683.58433	761.66945	1010.48822	-850.20890
